<svg width="171" height="81" viewBox="0 0 171 81" fill="none" xmlns="http://www.w3.org/2000/svg">
<path d="M10.5 29.5C2.9 16.3 0.333333 6.66667 0 0L13 -19L84.5 -24L181 -19L175.5 19.5C173.217 27.2145 171.5 47.8347 171.5 47.8347C158.798 65.0171 138.222 81.0075 108.5 80C49.5 78 20 46 10.5 29.5Z" fill="#645CC3"/>
<path d="M40.8 34.208V31.872H45.728V34.208H40.8ZM51.5073 38.192C49.6833 38.192 48.2273 37.5467 47.1393 36.256L48.8353 34.64C49.6353 35.536 50.5366 35.984 51.5393 35.984C52.0086 35.984 52.3873 35.8613 52.6753 35.616C52.9739 35.36 53.1233 35.0187 53.1233 34.592C53.1233 34.1333 52.9313 33.7813 52.5473 33.536C52.1633 33.2907 51.6246 33.168 50.9313 33.168H49.9073L49.5233 31.6L52.1953 28.912H47.7953V26.8H55.3633V28.656L52.5313 31.36C54.5366 31.7013 55.5393 32.7573 55.5393 34.528C55.5393 35.6053 55.1713 36.4853 54.4353 37.168C53.7099 37.8507 52.7339 38.192 51.5073 38.192ZM65.8928 36.544C64.9648 37.6427 63.7648 38.192 62.2928 38.192C60.8208 38.192 59.6261 37.6427 58.7088 36.544C57.7914 35.4453 57.3328 34.064 57.3328 32.4C57.3328 30.7467 57.7968 29.3707 58.7248 28.272C59.6528 27.1627 60.8528 26.608 62.3248 26.608C63.7861 26.608 64.9754 27.1573 65.8928 28.256C66.8208 29.3547 67.2848 30.736 67.2848 32.4C67.2848 34.0533 66.8208 35.4347 65.8928 36.544ZM60.5328 34.96C60.9914 35.632 61.5888 35.968 62.3248 35.968C63.0608 35.968 63.6474 35.6373 64.0848 34.976C64.5328 34.304 64.7568 33.4453 64.7568 32.4C64.7568 31.376 64.5274 30.528 64.0688 29.856C63.6101 29.1733 63.0181 28.832 62.2928 28.832C61.5674 28.832 60.9808 29.168 60.5328 29.84C60.0848 30.5013 59.8608 31.3547 59.8608 32.4C59.8608 33.4347 60.0848 34.288 60.5328 34.96ZM73.5483 31.568C73.0363 32.1227 72.3803 32.4 71.5803 32.4C70.7803 32.4 70.1296 32.128 69.6283 31.584C69.1269 31.0293 68.8763 30.3467 68.8763 29.536C68.8763 28.7253 69.1323 28.048 69.6443 27.504C70.1563 26.9493 70.8123 26.672 71.6123 26.672C72.4123 26.672 73.0629 26.9493 73.5643 27.504C74.0656 28.048 74.3163 28.7253 74.3163 29.536C74.3163 30.336 74.0603 31.0133 73.5483 31.568ZM69.9963 38L78.1723 26.8H80.0763L71.9003 38H69.9963ZM80.4283 37.296C79.9163 37.8507 79.2603 38.128 78.4603 38.128C77.6603 38.128 77.0096 37.856 76.5083 37.312C76.0069 36.7573 75.7563 36.0747 75.7563 35.264C75.7563 34.4533 76.0123 33.776 76.5243 33.232C77.0363 32.6773 77.6923 32.4 78.4923 32.4C79.2923 32.4 79.9429 32.6773 80.4443 33.232C80.9456 33.776 81.1963 34.4533 81.1963 35.264C81.1963 36.064 80.9403 36.7413 80.4283 37.296ZM71.6123 30.944C71.9323 30.944 72.1829 30.8107 72.3643 30.544C72.5456 30.2667 72.6363 29.9307 72.6363 29.536C72.6363 29.152 72.5349 28.8213 72.3323 28.544C72.1403 28.2667 71.8896 28.128 71.5803 28.128C71.2603 28.128 71.0096 28.2613 70.8283 28.528C70.6469 28.7947 70.5563 29.1307 70.5563 29.536C70.5563 29.92 70.6523 30.2507 70.8443 30.528C71.0469 30.8053 71.3029 30.944 71.6123 30.944ZM78.4923 36.672C78.8123 36.672 79.0629 36.5387 79.2443 36.272C79.4256 35.9947 79.5163 35.6587 79.5163 35.264C79.5163 34.88 79.4149 34.5493 79.2123 34.272C79.0203 33.9947 78.7696 33.856 78.4603 33.856C78.1403 33.856 77.8896 33.9893 77.7083 34.256C77.5269 34.5227 77.4363 34.8587 77.4363 35.264C77.4363 35.648 77.5323 35.9787 77.7243 36.256C77.9269 36.5333 78.1829 36.672 78.4923 36.672ZM95.6628 29.424V38H93.2308V34.72H90.2388V38H87.8068V29.424H90.2388V32.72H93.2308V29.424H95.6628ZM100.27 38.16C99.4273 38.16 98.7233 37.9253 98.158 37.456C97.6033 36.9867 97.326 36.336 97.326 35.504C97.326 34.5973 97.6353 33.9147 98.254 33.456C98.8833 32.9973 99.726 32.768 100.782 32.768C101.497 32.768 102.195 32.8853 102.878 33.12V32.976C102.878 31.9307 102.265 31.408 101.038 31.408C100.302 31.408 99.5127 31.5627 98.67 31.872L98.062 30.016C99.1073 29.5573 100.217 29.328 101.39 29.328C102.681 29.328 103.646 29.648 104.286 30.288C104.905 30.9067 105.214 31.8187 105.214 33.024V38H102.862V37.072C102.211 37.7973 101.347 38.16 100.27 38.16ZM101.006 36.48C101.571 36.48 102.03 36.3413 102.382 36.064C102.734 35.776 102.91 35.4133 102.91 34.976V34.544C102.451 34.3307 101.934 34.224 101.358 34.224C100.825 34.224 100.409 34.3307 100.11 34.544C99.822 34.7467 99.678 35.0453 99.678 35.44C99.678 35.76 99.8007 36.016 100.046 36.208C100.291 36.3893 100.611 36.48 101.006 36.48ZM118.36 31.504H114.536V38H112.104V29.424H118.36V31.504ZM127.202 36.896C126.316 37.76 125.212 38.192 123.89 38.192C122.567 38.192 121.463 37.7653 120.578 36.912C119.703 36.048 119.266 34.9867 119.266 33.728C119.266 32.48 119.708 31.424 120.594 30.56C121.49 29.696 122.599 29.264 123.922 29.264C125.244 29.264 126.343 29.696 127.218 30.56C128.103 31.4133 128.546 32.4693 128.546 33.728C128.546 34.976 128.098 36.032 127.202 36.896ZM123.922 36.096C124.594 36.096 125.132 35.872 125.538 35.424C125.943 34.9653 126.146 34.4 126.146 33.728C126.146 33.0773 125.932 32.5227 125.506 32.064C125.09 31.5947 124.551 31.36 123.89 31.36C123.218 31.36 122.679 31.5893 122.274 32.048C121.868 32.496 121.666 33.056 121.666 33.728C121.666 34.3787 121.874 34.9387 122.29 35.408C122.716 35.8667 123.26 36.096 123.922 36.096ZM132.771 35.92H135.699V31.504H133.411V31.696C133.389 33.5413 133.176 34.9493 132.771 35.92ZM136.963 38H131.587L131.411 40.016H129.363V35.92H130.291C130.845 34.736 131.123 32.816 131.123 30.16V29.424H138.131V35.92H139.299L139.011 40.016H136.963V38Z" fill="white"/>
</svg>
