<svg width="32" height="32" viewBox="0 0 32 32" fill="none" xmlns="http://www.w3.org/2000/svg">
<path d="M11 3V7" stroke="white" stroke-width="1.5" stroke-miterlimit="10" stroke-linecap="round" stroke-linejoin="round"/>
<path d="M21 3V7" stroke="white" stroke-width="1.5" stroke-miterlimit="10" stroke-linecap="round" stroke-linejoin="round"/>
<path d="M5 12H27.6667" stroke="white" stroke-width="1.5" stroke-miterlimit="10" stroke-linecap="round" stroke-linejoin="round"/>
<rect x="4" y="5" width="24" height="24" rx="6" stroke="white" stroke-width="1.5"/>
<path d="M29 24.5C29 25.7188 28.6587 26.8725 28.0575 27.8475C26.9362 29.7325 24.8725 31 22.5 31C20.8587 31 19.3638 30.3988 18.2263 29.375C17.7225 28.9525 17.2838 28.4325 16.9425 27.8475C16.3413 26.8725 16 25.7188 16 24.5C16 20.9088 18.9088 18 22.5 18C24.45 18 26.1888 18.8612 27.375 20.21C28.3825 21.3637 29 22.8587 29 24.5Z" fill="#6A63C6" stroke="white" stroke-width="1.5" stroke-miterlimit="10" stroke-linecap="round" stroke-linejoin="round"/>
<path d="M20.5 24.5L22 26L25 23" stroke="white" stroke-width="1.5" stroke-linecap="round" stroke-linejoin="round"/>
</svg>
