<svg width="32" height="32" viewBox="0 0 32 32" fill="none" xmlns="http://www.w3.org/2000/svg">
<path d="M11 13.125L16.417 17.3969C16.8426 17.7325 17.4582 17.6679 17.8049 17.2513L28 5" stroke="#141414" stroke-width="1.5" stroke-linecap="round"/>
<path d="M30 16C30 18.9252 29.0837 21.7769 27.3799 24.1547C25.676 26.5324 23.2701 28.3167 20.5002 29.257C17.7302 30.1973 14.7353 30.2463 11.936 29.3972C9.13677 28.548 6.67381 26.8434 4.89305 24.5227C3.1123 22.2019 2.10321 19.3817 2.0075 16.4581C1.91179 13.5344 2.73427 10.6542 4.35943 8.22202C5.98458 5.7898 8.33078 3.92772 11.0685 2.89732C13.8062 1.86691 16.7979 1.71994 19.6235 2.47704" stroke="#141414" stroke-width="1.5" stroke-linecap="round"/>
</svg>
