<svg width="64" height="64" viewBox="0 0 64 64" fill="none" xmlns="http://www.w3.org/2000/svg">
<rect width="64" height="64" rx="32" fill="white"/>
<path d="M33.73 23.5099L35.49 27.0299C35.73 27.5199 36.37 27.9899 36.91 28.0799L40.1 28.6099C42.14 28.9499 42.62 30.4299 41.15 31.8899L38.67 34.3699C38.25 34.7899 38.02 35.5999 38.15 36.1799L38.86 39.2499C39.42 41.6799 38.13 42.6199 35.98 41.3499L32.99 39.5799C32.45 39.2599 31.56 39.2599 31.01 39.5799L28.02 41.3499C25.88 42.6199 24.58 41.6699 25.14 39.2499L25.85 36.1799C25.98 35.5999 25.75 34.7899 25.33 34.3699L22.85 31.8899C21.39 30.4299 21.86 28.9499 23.9 28.6099L27.09 28.0799C27.62 27.9899 28.26 27.5199 28.5 27.0299L30.26 23.5099C31.22 21.5999 32.78 21.5999 33.73 23.5099Z" stroke="#141414" stroke-width="1.5" stroke-linecap="round" stroke-linejoin="round"/>
</svg>
