<svg width="574" height="190" viewBox="0 0 574 190" fill="none" xmlns="http://www.w3.org/2000/svg">
<g opacity="0.08">
<path d="M0.282715 154.667L0.282715 6.9533L111.459 6.9533V35.8629H32.4984V65.8276H101.983V94.7372H32.4984V125.757H112.511V154.667H0.282715Z" fill="white"/>
<path d="M137.973 154.667V41.5604H169.978V57.5978C179.383 45.4994 190.402 39.4502 203.036 39.4502C215.108 39.4502 224.513 43.1782 231.251 50.6342C237.989 58.0902 241.358 68.3598 241.358 81.443V154.667H209.353V91.5719C209.353 84.1159 207.668 78.4184 204.299 74.4793C200.93 70.5403 196.158 68.5708 189.981 68.5708C183.805 68.5708 178.892 70.5403 175.242 74.4793C171.733 78.4184 169.978 84.1159 169.978 91.5719V154.667H137.973Z" fill="white"/>
<path d="M269.793 29.1103V0.622742L303.483 0.622742V29.1103H269.793ZM266.424 189.063C261.652 189.063 257.019 188.641 252.527 187.796V162.685C255.054 163.107 257.3 163.318 259.265 163.318C266.846 163.318 270.636 158.957 270.636 150.235V41.5604H302.641V152.767C302.641 176.964 290.569 189.063 266.424 189.063Z" fill="white"/>
<path d="M431.663 140.106C420.012 151.501 405.484 157.199 388.077 157.199C370.671 157.199 356.142 151.572 344.491 140.317C332.981 128.922 327.225 114.925 327.225 98.3245C327.225 81.865 333.051 67.9378 344.702 56.5427C356.493 45.1477 371.092 39.4502 388.498 39.4502C405.905 39.4502 420.363 45.1477 431.874 56.5427C443.525 67.7971 449.35 81.7243 449.35 98.3245C449.35 114.784 443.455 128.711 431.663 140.106ZM388.498 129.555C397.342 129.555 404.431 126.601 409.765 120.692C415.099 114.643 417.766 107.187 417.766 98.3245C417.766 89.743 414.959 82.4277 409.344 76.3785C403.869 70.1886 396.78 67.0937 388.077 67.0937C379.234 67.0937 372.145 70.1183 366.811 76.1675C361.476 82.076 358.809 89.4617 358.809 98.3245C358.809 106.906 361.547 114.292 367.021 120.481C372.636 126.531 379.795 129.555 388.498 129.555Z" fill="white"/>
<path d="M493.102 189.063C482.996 189.063 473.52 186.46 464.677 181.255L475.415 158.043C480.328 160.997 484.891 162.474 489.102 162.474C494.155 162.474 497.875 160.012 500.262 155.089L456.044 41.5604H489.944L515.632 118.582L540.268 41.5604H573.536L530.161 157.41C525.81 169.086 520.896 177.246 515.422 181.888C509.947 186.671 502.508 189.063 493.102 189.063Z" fill="white"/>
</g>
</svg>
