<svg width="630" height="630" viewBox="0 0 630 630" fill="none" xmlns="http://www.w3.org/2000/svg">
<g clip-path="url(#clip0_98_774)">
<path d="M315 630C488.97 630 630 488.97 630 315C630 141.03 488.97 0 315 0C141.03 0 0 141.03 0 315C0 488.97 141.03 630 315 630Z" fill="#FB4516"/>
<path fill-rule="evenodd" clip-rule="evenodd" d="M485.1 374.22C485.1 388.08 496.44 399.42 510.3 399.42C524.16 399.42 535.5 388.08 535.5 374.22C535.5 360.36 524.16 349.02 510.3 349.02C496.44 349.02 485.1 360.36 485.1 374.22Z" fill="white"/>
<path fill-rule="evenodd" clip-rule="evenodd" d="M328.86 264.6C326.34 275.94 332.64 287.28 345.24 291.06C357.84 294.84 370.44 287.28 372.96 275.94L395.64 191.52C395.64 191.52 415.8 162.54 437.22 168.84C452.34 172.62 459.9 186.48 454.86 207.9L432.18 292.32C429.66 303.66 435.96 315 448.56 318.78C461.16 322.56 473.76 315 476.28 303.66L498.96 219.24C511.56 172.62 493.92 141.12 462.42 133.56C427.14 123.48 408.24 147.42 408.24 147.42H406.98L408.24 143.64C410.76 132.3 404.46 120.96 391.86 117.18C379.26 113.4 366.66 120.96 364.14 132.3L328.86 264.6Z" fill="white"/>
<path fill-rule="evenodd" clip-rule="evenodd" d="M272.16 214.2C243.18 165.06 199.08 153.72 160.02 175.14C120.96 197.82 108.36 249.48 136.08 297.36C163.8 346.5 215.46 359.1 254.52 336.42C291.06 315 301.14 278.46 292.32 263.34C287.28 254.52 275.94 250.74 263.34 258.3C248.22 267.12 255.78 287.28 234.36 299.88C217.98 308.7 199.08 304.92 183.96 288.54L264.6 241.92C274.68 236.88 278.46 223.02 272.16 214.2ZM166.32 255.78C158.76 236.88 165.06 219.24 180.18 210.42C195.3 201.6 212.94 205.38 224.28 223.02L166.32 255.78Z" fill="white"/>
<path fill-rule="evenodd" clip-rule="evenodd" d="M313.74 478.8C357.84 478.8 401.94 463.68 434.7 433.44C439.74 428.4 444.78 423.36 449.82 417.06C454.86 409.5 459.9 404.46 469.98 404.46C482.58 404.46 492.66 414.54 492.66 427.14C492.66 432.18 491.4 437.22 487.62 441C481.32 449.82 472.5 458.64 464.94 466.2C423.36 504 369.18 524.16 313.74 524.16C254.52 524.16 201.6 501.48 162.54 466.2C153.72 458.64 146.16 449.82 139.86 441C137.34 437.22 134.82 432.18 134.82 427.14C134.82 414.54 144.9 404.46 157.5 404.46C167.58 404.46 172.62 409.5 177.66 417.06C182.7 422.1 187.74 428.4 192.78 433.44C224.28 461.16 265.86 478.8 313.74 478.8Z" fill="white"/>
</g>
<defs>
<clipPath id="clip0_98_774">
<rect width="630" height="630" fill="white"/>
</clipPath>
</defs>
</svg>
