<svg width="171" height="81" viewBox="0 0 171 81" fill="none" xmlns="http://www.w3.org/2000/svg">
<path d="M10.5 29.5C2.9 16.3 0.333333 6.66667 0 0L13 -19L84.5 -24L181 -19L175.5 19.5C173.217 27.2145 171.5 47.8347 171.5 47.8347C158.798 65.0171 138.222 81.0075 108.5 80C49.5 78 20 46 10.5 29.5Z" fill="#645CC3"/>
<path d="M79.152 28.192C77.8507 28.192 76.7787 27.7813 75.936 26.96C75.0933 26.128 74.672 25.0507 74.672 23.728C74.672 22.48 75.072 21.424 75.872 20.56C76.672 19.696 77.6853 19.264 78.912 19.264C80.2667 19.264 81.3013 19.712 82.016 20.608C82.7307 21.504 83.088 22.608 83.088 23.92C83.088 24.048 83.0773 24.2613 83.056 24.56H77.088C77.2053 25.104 77.4453 25.52 77.808 25.808C78.1707 26.096 78.6293 26.24 79.184 26.24C79.9413 26.24 80.6347 25.9467 81.264 25.36L82.656 26.592C81.792 27.6587 80.624 28.192 79.152 28.192ZM77.056 23.04H80.72C80.6453 22.4853 80.448 22.0427 80.128 21.712C79.8187 21.3813 79.4133 21.216 78.912 21.216C78.4213 21.216 78.0107 21.3813 77.68 21.712C77.36 22.032 77.152 22.4747 77.056 23.04ZM84.9005 28V19.424H87.3325V20.64C88.0472 19.7227 88.8845 19.264 89.8445 19.264C90.7618 19.264 91.4765 19.5467 91.9885 20.112C92.5005 20.6773 92.7565 21.456 92.7565 22.448V28H90.3245V23.216C90.3245 22.6507 90.1965 22.2187 89.9405 21.92C89.6845 21.6213 89.3218 21.472 88.8525 21.472C88.3832 21.472 88.0098 21.6213 87.7325 21.92C87.4658 22.2187 87.3325 22.6507 87.3325 23.216V28H84.9005ZM94.9173 18.48V16.32H97.4773V18.48H94.9173ZM94.6613 30.608C94.2986 30.608 93.9466 30.576 93.6052 30.512V28.608C93.7972 28.64 93.9679 28.656 94.1173 28.656C94.6933 28.656 94.9813 28.3253 94.9813 27.664V19.424H97.4133V27.856C97.4133 29.6907 96.4959 30.608 94.6613 30.608ZM107.217 26.896C106.332 27.76 105.228 28.192 103.905 28.192C102.583 28.192 101.479 27.7653 100.593 26.912C99.7187 26.048 99.2814 24.9867 99.2814 23.728C99.2814 22.48 99.724 21.424 100.609 20.56C101.505 19.696 102.615 19.264 103.937 19.264C105.26 19.264 106.359 19.696 107.233 20.56C108.119 21.4133 108.561 22.4693 108.561 23.728C108.561 24.976 108.113 26.032 107.217 26.896ZM103.937 26.096C104.609 26.096 105.148 25.872 105.553 25.424C105.959 24.9653 106.161 24.4 106.161 23.728C106.161 23.0773 105.948 22.5227 105.521 22.064C105.105 21.5947 104.567 21.36 103.905 21.36C103.233 21.36 102.695 21.5893 102.289 22.048C101.884 22.496 101.681 23.056 101.681 23.728C101.681 24.3787 101.889 24.9387 102.305 25.408C102.732 25.8667 103.276 26.096 103.937 26.096ZM111.886 30.608C111.118 30.608 110.398 30.4107 109.726 30.016L110.542 28.256C110.915 28.48 111.262 28.592 111.582 28.592C111.966 28.592 112.249 28.4053 112.43 28.032L109.07 19.424H111.646L113.598 25.264L115.47 19.424H117.998L114.702 28.208C114.371 29.0933 113.998 29.712 113.582 30.064C113.166 30.4267 112.601 30.608 111.886 30.608ZM75.088 39.424H79.792C80.6667 39.424 81.36 39.616 81.872 40C82.3947 40.384 82.656 40.9067 82.656 41.568C82.656 42.464 82.2027 43.1093 81.296 43.504C82.416 43.8453 82.976 44.5653 82.976 45.664C82.976 46.3893 82.688 46.96 82.112 47.376C81.5467 47.792 80.768 48 79.776 48H75.088V39.424ZM77.488 42.864H79.2C79.5307 42.864 79.7813 42.784 79.952 42.624C80.1333 42.464 80.224 42.256 80.224 42C80.224 41.776 80.1387 41.5893 79.968 41.44C79.808 41.2907 79.5627 41.216 79.232 41.216H77.488V42.864ZM77.488 46.096H79.408C80.144 46.096 80.512 45.808 80.512 45.232C80.512 44.6773 80.1227 44.4 79.344 44.4H77.488V46.096ZM97.2706 39.424V48H94.8386V41.504H91.9106V48H89.4786V39.424H97.2706ZM106.967 46.896C106.082 47.76 104.978 48.192 103.655 48.192C102.333 48.192 101.229 47.7653 100.343 46.912C99.4687 46.048 99.0314 44.9867 99.0314 43.728C99.0314 42.48 99.474 41.424 100.359 40.56C101.255 39.696 102.365 39.264 103.687 39.264C105.01 39.264 106.109 39.696 106.983 40.56C107.869 41.4133 108.311 42.4693 108.311 43.728C108.311 44.976 107.863 46.032 106.967 46.896ZM103.687 46.096C104.359 46.096 104.898 45.872 105.303 45.424C105.709 44.9653 105.911 44.4 105.911 43.728C105.911 43.0773 105.698 42.5227 105.271 42.064C104.855 41.5947 104.317 41.36 103.655 41.36C102.983 41.36 102.445 41.5893 102.039 42.048C101.634 42.496 101.431 43.056 101.431 43.728C101.431 44.3787 101.639 44.9387 102.055 45.408C102.482 45.8667 103.026 46.096 103.687 46.096ZM112.536 45.92H115.464V41.504H113.176V41.696C113.155 43.5413 112.942 44.9493 112.536 45.92ZM116.728 48H111.352L111.176 50.016H109.128V45.92H110.056C110.611 44.736 110.888 42.816 110.888 40.16V39.424H117.896V45.92H119.064L118.776 50.016H116.728V48ZM122.817 48.16C121.974 48.16 121.27 47.9253 120.705 47.456C120.15 46.9867 119.873 46.336 119.873 45.504C119.873 44.5973 120.182 43.9147 120.801 43.456C121.43 42.9973 122.273 42.768 123.329 42.768C124.044 42.768 124.742 42.8853 125.425 43.12V42.976C125.425 41.9307 124.812 41.408 123.585 41.408C122.849 41.408 122.06 41.5627 121.217 41.872L120.609 40.016C121.654 39.5573 122.764 39.328 123.937 39.328C125.228 39.328 126.193 39.648 126.833 40.288C127.452 40.9067 127.761 41.8187 127.761 43.024V48H125.409V47.072C124.758 47.7973 123.894 48.16 122.817 48.16ZM123.553 46.48C124.118 46.48 124.577 46.3413 124.929 46.064C125.281 45.776 125.457 45.4133 125.457 44.976V44.544C124.998 44.3307 124.481 44.224 123.905 44.224C123.372 44.224 122.956 44.3307 122.657 44.544C122.369 44.7467 122.225 45.0453 122.225 45.44C122.225 45.76 122.348 46.016 122.593 46.208C122.838 46.3893 123.158 46.48 123.553 46.48ZM129.854 50.56V39.424H132.286V40.656C132.968 39.728 133.859 39.264 134.958 39.264C136.024 39.264 136.942 39.664 137.71 40.464C138.478 41.264 138.862 42.352 138.862 43.728C138.862 45.0933 138.478 46.176 137.71 46.976C136.952 47.7653 136.035 48.16 134.958 48.16C133.891 48.16 133 47.7333 132.286 46.88V50.56H129.854ZM132.846 45.44C133.251 45.8773 133.747 46.096 134.334 46.096C134.92 46.096 135.416 45.8773 135.822 45.44C136.227 44.992 136.43 44.4107 136.43 43.696C136.43 43.0027 136.227 42.4373 135.822 42C135.416 41.552 134.92 41.328 134.334 41.328C133.747 41.328 133.251 41.552 132.846 42C132.451 42.4373 132.254 43.0133 132.254 43.728C132.254 44.4213 132.451 44.992 132.846 45.44ZM148.171 46.896C147.285 47.76 146.181 48.192 144.859 48.192C143.536 48.192 142.432 47.7653 141.547 46.912C140.672 46.048 140.235 44.9867 140.235 43.728C140.235 42.48 140.677 41.424 141.562 40.56C142.459 39.696 143.568 39.264 144.891 39.264C146.213 39.264 147.312 39.696 148.187 40.56C149.072 41.4133 149.515 42.4693 149.515 43.728C149.515 44.976 149.067 46.032 148.171 46.896ZM144.891 46.096C145.563 46.096 146.101 45.872 146.507 45.424C146.912 44.9653 147.115 44.4 147.115 43.728C147.115 43.0773 146.901 42.5227 146.475 42.064C146.059 41.5947 145.52 41.36 144.859 41.36C144.187 41.36 143.648 41.5893 143.243 42.048C142.837 42.496 142.635 43.056 142.635 43.728C142.635 44.3787 142.843 44.9387 143.259 45.408C143.685 45.8667 144.229 46.096 144.891 46.096ZM151.276 48V39.424H153.708V42.944L156.78 39.424H159.58L156.428 42.944L159.98 48H157.1L154.812 44.736L153.708 45.936V48H151.276Z" fill="white"/>
<path d="M47 51C56.9411 51 65 42.9411 65 33C65 23.0589 56.9411 15 47 15C37.0589 15 29 23.0589 29 33C29 42.9411 37.0589 51 47 51Z" fill="#FB4516"/>
<path fill-rule="evenodd" clip-rule="evenodd" d="M56.72 36.3841C56.72 37.1761 57.368 37.8241 58.16 37.8241C58.952 37.8241 59.6 37.1761 59.6 36.3841C59.6 35.5921 58.952 34.9441 58.16 34.9441C57.368 34.9441 56.72 35.5921 56.72 36.3841Z" fill="white"/>
<path fill-rule="evenodd" clip-rule="evenodd" d="M47.792 30.1201C47.648 30.7681 48.008 31.4161 48.728 31.6321C49.448 31.8481 50.168 31.4161 50.312 30.7681L51.608 25.9441C51.608 25.9441 52.76 24.2881 53.984 24.6481C54.848 24.8641 55.28 25.6561 54.992 26.8801L53.696 31.7041C53.552 32.3521 53.912 33.0001 54.632 33.2161C55.352 33.4321 56.072 33.0001 56.216 32.3521L57.512 27.5281C58.232 24.8641 57.224 23.0641 55.424 22.6321C53.408 22.0561 52.328 23.4241 52.328 23.4241H52.256L52.328 23.2081C52.472 22.5601 52.112 21.9121 51.392 21.6961C50.672 21.4801 49.952 21.9121 49.808 22.5601L47.792 30.1201Z" fill="white"/>
<path fill-rule="evenodd" clip-rule="evenodd" d="M44.552 27.24C42.896 24.432 40.376 23.784 38.144 25.008C35.912 26.304 35.192 29.256 36.776 31.992C38.36 34.8 41.312 35.52 43.544 34.224C45.632 33 46.208 30.912 45.704 30.048C45.416 29.544 44.768 29.328 44.048 29.76C43.184 30.264 43.616 31.416 42.392 32.136C41.456 32.64 40.376 32.424 39.512 31.488L44.12 28.824C44.696 28.536 44.912 27.744 44.552 27.24ZM38.504 29.616C38.072 28.536 38.432 27.528 39.296 27.024C40.16 26.52 41.168 26.736 41.816 27.744L38.504 29.616Z" fill="white"/>
<path fill-rule="evenodd" clip-rule="evenodd" d="M46.9281 42.3601C49.4481 42.3601 51.9681 41.4961 53.8401 39.7681C54.1281 39.4801 54.4161 39.1921 54.7041 38.8321C54.9921 38.4001 55.2801 38.1121 55.8561 38.1121C56.5761 38.1121 57.1521 38.6881 57.1521 39.4081C57.1521 39.6961 57.0801 39.9841 56.8641 40.2001C56.5041 40.7041 56.0001 41.2081 55.5681 41.6401C53.1921 43.8001 50.0961 44.9521 46.9281 44.9521C43.5441 44.9521 40.5201 43.6561 38.2881 41.6401C37.7841 41.2081 37.3521 40.7041 36.9921 40.2001C36.8481 39.9841 36.7041 39.6961 36.7041 39.4081C36.7041 38.6881 37.2801 38.1121 38.0001 38.1121C38.5761 38.1121 38.8641 38.4001 39.1521 38.8321C39.4401 39.1201 39.7281 39.4801 40.0161 39.7681C41.8161 41.3521 44.1921 42.3601 46.9281 42.3601Z" fill="white"/>
</svg>
