<svg width="32" height="32" viewBox="0 0 32 32" fill="none" xmlns="http://www.w3.org/2000/svg">
<rect width="32" height="32" rx="16" fill="#8B8B8B"/>
<path fill-rule="evenodd" clip-rule="evenodd" d="M16.8214 23.1667L16.8682 16.7046H18.6408C18.8918 16.7046 19.1039 16.5185 19.1366 16.2697L19.3362 14.7513C19.3756 14.4519 19.1425 14.1862 18.8405 14.1862H16.8682V12.5783C16.8682 11.8492 17.0746 11.3523 18.1405 11.3523L19.0002 11.3519C19.2763 11.3518 19.5 11.128 19.5 10.8519V9.5539C19.5 9.29612 19.3043 9.08103 19.0471 9.06243C18.6565 9.03419 18.07 9 17.519 9C15.5588 9 14.2169 10.1736 14.2169 12.3289V14.1862H12.5C12.2239 14.1862 12 14.41 12 14.6862V16.2046C12 16.4807 12.2239 16.7046 12.5 16.7046H14.2169V23.1667" fill="white"/>
</svg>
