<svg width="32" height="32" viewBox="0 0 32 32" fill="none" xmlns="http://www.w3.org/2000/svg">
<g clip-path="url(#clip0_92_69)">
<path d="M0 27.5385C0.0356824 24.7196 0.492417 22.2147 1.10616 19.7312C1.61285 17.683 2.17663 15.6491 3.08296 13.7294C3.66102 12.5019 4.36753 11.3601 5.47368 10.5394C7.07939 9.35476 8.85638 9.0693 10.7832 9.56885C11.8751 9.84717 12.967 10.1326 14.0731 10.311C16.1427 10.6465 18.1909 10.4181 20.2034 9.84717C20.8528 9.66163 21.5094 9.46894 22.1731 9.39758C24.5995 9.12639 26.5049 10.0613 27.9108 12.0381C28.9242 13.4582 29.5236 15.0711 30.0375 16.7196C30.8439 19.3173 31.4862 21.9578 31.8073 24.6625C32.0071 26.3539 32.1213 28.0524 31.7574 29.7366C31.6646 30.1648 31.529 30.5858 31.3434 30.9783C30.851 32.0131 29.909 32.3842 28.8171 32.0274C28.0678 31.7847 27.4326 31.3423 26.8831 30.7928C26.2123 30.1219 25.5129 29.4582 24.9563 28.6946C23.8501 27.1817 22.3657 26.518 20.5388 26.518C17.5558 26.5109 14.5727 26.5037 11.5897 26.5323C10.9688 26.5394 10.3408 26.6536 9.71989 26.7678C8.58519 26.9819 7.843 27.7526 7.12221 28.5876C6.33006 29.5011 5.48796 30.3788 4.60303 31.1995C4.00357 31.7633 3.26851 32.1558 2.39072 32.1487C1.72703 32.1416 1.19893 31.8704 0.820696 31.3137C0.335415 30.5929 0.178412 29.7651 0.0785013 28.923C0.0285459 28.3878 0.0214095 27.8383 0 27.5385ZM6.8653 15.642C5.30954 15.6491 4.0678 16.898 4.07493 18.4609C4.07493 20.0167 5.33809 21.287 6.87957 21.287C8.41392 21.287 9.66994 20.0095 9.66994 18.4538C9.66994 16.8909 8.42105 15.6349 6.8653 15.642ZM19.818 17.0907C19.0544 17.0907 18.4407 17.7187 18.4478 18.4752C18.455 19.2317 19.0901 19.8597 19.8394 19.8525C20.5959 19.8454 21.2096 19.2174 21.2025 18.4538C21.2025 17.6902 20.5888 17.0836 19.818 17.0907ZM24.2141 15.4208C24.2141 14.6572 23.5932 14.0363 22.8368 14.0434C22.0803 14.0506 21.4737 14.6714 21.4737 15.435C21.4737 16.2058 22.0803 16.8124 22.851 16.8052C23.6146 16.8052 24.2141 16.1915 24.2141 15.4208ZM24.2141 21.4939C24.2141 20.7303 23.6004 20.1094 22.8439 20.1023C22.0946 20.0952 21.4737 20.7232 21.4737 21.4868C21.4737 22.2504 22.0803 22.8713 22.8368 22.8713C23.6004 22.8713 24.2141 22.2575 24.2141 21.4939ZM25.8626 17.0907C25.0919 17.0907 24.4853 17.6973 24.4853 18.4681C24.4853 19.2317 25.1133 19.8597 25.8698 19.8454C26.6191 19.8383 27.2186 19.2317 27.2257 18.4752C27.2328 17.7044 26.6334 17.0907 25.8626 17.0907Z" fill="black"/>
</g>
<defs>
<clipPath id="clip0_92_69">
<rect width="32" height="32" fill="white"/>
</clipPath>
</defs>
</svg>
