<svg width="83" height="40" viewBox="0 0 83 40" fill="none" xmlns="http://www.w3.org/2000/svg">
<path fill-rule="evenodd" clip-rule="evenodd" d="M81.9883 11.9298C81.9883 11.9298 82.3392 10.9942 82.3392 10.1755C82.3392 9.00586 81.4035 8.07019 80.1169 8.07019C78.8304 8.07019 78.1286 8.77194 77.8947 9.59066L75.2047 18.4795H74.8538L71.8129 9.59066C71.5789 8.8889 70.8772 8.07019 69.5906 8.07019C68.1871 8.07019 67.3684 9.00586 67.3684 10.1755C67.3684 10.9942 67.7193 11.9298 67.7193 11.9298L72.6316 24.9123L69.9415 32.2807C69.9415 32.2807 69.5906 33.2164 69.5906 34.0351C69.5906 35.2047 70.5263 36.1404 71.8129 36.1404C73.0994 36.1404 73.8012 35.4386 74.0351 34.6199L81.9883 11.9298Z" fill="#FB4516"/>
<path fill-rule="evenodd" clip-rule="evenodd" d="M64.4443 16.8421C64.4443 11.462 60.7016 7.7193 56.2572 7.7193C51.8128 7.7193 48.0701 11.462 48.0701 16.8421C48.0701 22.2222 51.8128 25.9649 56.2572 25.9649C60.7016 25.9649 64.4443 22.2222 64.4443 16.8421ZM52.6315 16.8421C52.6315 13.6842 54.5028 11.8129 56.2572 11.8129C58.0116 11.8129 59.9999 13.6842 59.9999 16.8421C59.9999 20 58.1285 21.8713 56.2572 21.8713C54.3859 21.8713 52.6315 20 52.6315 16.8421Z" fill="#FB4516"/>
<path fill-rule="evenodd" clip-rule="evenodd" d="M39.1814 2.45614C39.1814 3.85965 40.234 4.91228 41.6375 4.91228C43.041 4.91228 44.0937 3.85965 44.0937 2.45614C44.0937 1.05263 43.041 0 41.6375 0C40.351 0 39.1814 1.05263 39.1814 2.45614Z" fill="#FB4516"/>
<path fill-rule="evenodd" clip-rule="evenodd" d="M43.8596 26.7836C43.8596 21.2865 43.8596 15.3216 43.8596 9.82456C43.8596 8.65497 42.9239 7.7193 41.6374 7.7193C40.2339 7.7193 39.2982 8.65497 39.4151 9.82456V26.4327C39.4151 28.655 38.7134 30.6433 37.5438 32.5146C36.4912 34.0351 37.5438 36.1403 39.4151 36.1403C40.2339 36.1403 40.9356 35.6725 41.2865 35.0877C42.9239 32.5146 43.8596 29.8246 43.8596 26.7836Z" fill="#FB4516"/>
<path fill-rule="evenodd" clip-rule="evenodd" d="M19.8831 23.5088C19.8831 24.6784 20.8187 25.614 22.1053 25.614C23.3918 25.614 24.3275 24.6784 24.3275 23.5088V14.9707C24.3275 14.9707 25.4971 11.8129 27.7193 11.8129C29.2398 11.8129 30.4094 12.9824 30.4094 14.9707V23.5088C30.4094 24.6784 31.345 25.614 32.6316 25.614C33.9181 25.614 34.8538 24.6784 34.8538 23.5088V14.9707C34.8538 10.2924 32.3977 7.83624 29.2398 7.83624C25.731 7.9532 24.5614 10.5263 24.5614 10.5263H24.3275V10.1754C24.3275 9.00583 23.3918 8.07016 22.1053 8.07016C20.8187 8.07016 19.8831 9.00583 19.8831 10.1754V23.5088Z" fill="#FB4516"/>
<path fill-rule="evenodd" clip-rule="evenodd" d="M15.6725 16.4912C15.6725 10.9942 12.3977 7.7193 8.07017 7.7193C3.74269 7.7193 0 11.5789 0 16.9591C0 22.4561 3.62573 26.0819 8.07017 26.0819C12.1637 26.0819 14.8538 23.5088 14.8538 21.7544C14.8538 20.7018 14.0351 19.883 12.6316 19.883C10.8772 19.883 10.6433 21.9883 8.07017 21.9883C6.31579 21.9883 4.79532 20.7018 4.44444 18.5965H13.4503C14.7368 18.4795 15.6725 17.6608 15.6725 16.4912ZM4.67836 14.9708C4.91228 12.9825 6.31579 11.6959 8.07017 11.6959C9.82456 11.6959 10.9942 12.8655 11.2281 14.8538H4.67836V14.9708Z" fill="#FB4516"/>
<path fill-rule="evenodd" clip-rule="evenodd" d="M17.4269 35.5555C21.7544 35.5555 25.9649 34.0351 29.1228 31.1111C29.5906 30.6433 30.1754 30.0585 30.5263 29.5906C30.9942 28.8889 31.5789 28.421 32.5146 28.421C33.6842 28.421 34.7368 29.3567 34.7368 30.6433C34.7368 31.1111 34.6199 31.5789 34.269 31.9298C33.5672 32.8655 32.8655 33.6842 32.0468 34.3859C28.0702 38.1286 22.807 40 17.3099 40C11.5789 40 6.31579 37.7778 2.5731 34.3859C1.87134 33.5672 1.16959 32.7485 0.467836 31.9298C0.116959 31.462 0 30.9941 0 30.5263C0 29.3567 0.935672 28.3041 2.22222 28.3041C3.27485 28.3041 3.74269 28.7719 4.21053 29.4737C4.67836 30.0585 5.1462 30.5263 5.61404 30.9941C8.65497 33.9181 12.8655 35.5555 17.4269 35.5555Z" fill="#FB4516"/>
</svg>
