<svg width="32" height="32" viewBox="0 0 32 32" fill="none" xmlns="http://www.w3.org/2000/svg">
<g clip-path="url(#clip0_92_76)">
<path d="M16.8013 2.43938C17.317 2.38509 17.792 2.32402 18.2601 2.28331C19.4883 2.17474 20.0583 2.55473 20.4111 3.74217C20.5061 4.07466 20.6825 4.28501 20.9743 4.44107C21.9989 4.97033 23.0235 5.49281 24.0277 6.04921C24.8624 6.51062 25.0795 6.95846 24.9302 7.88806C24.7809 8.81087 24.3806 9.63191 23.7224 10.3037C23.2474 10.7922 22.7114 10.9686 22.0328 10.6904C20.9472 10.2426 19.7801 10.1476 18.6266 10.0119C17.9887 9.93725 17.3577 9.80154 16.7334 9.66584C16.2177 9.55048 15.9192 9.57763 15.7767 9.83547C15.6342 10.1001 15.7495 10.4801 16.1567 10.7651C16.9709 11.335 17.8191 11.8507 18.6469 12.4071C19.6376 13.0721 20.6554 13.7099 21.6054 14.436C22.4875 15.1145 23.1321 16.0034 23.3899 17.123C23.6749 18.3512 23.3696 19.4979 22.8607 20.6039C22.7453 20.8618 22.596 21.106 22.4807 21.3571C22.3246 21.6964 22.0668 21.8253 21.6936 21.8185C18.8573 21.8117 16.0142 21.8117 13.1779 21.8117C12.3636 21.8117 11.5494 21.8117 10.7351 21.8117C10.0973 21.8117 9.82588 21.3707 10.1448 20.821C10.7894 19.715 10.7894 18.5751 10.2669 17.4419C9.99551 16.8584 9.64946 16.3155 9.3034 15.7727C8.40094 14.3817 7.3967 13.045 6.73852 11.5115C5.86998 9.51656 5.70713 7.46736 6.57567 5.41138C7.27456 3.75574 8.54344 2.62258 10.0769 1.76083C11.6512 0.878731 13.3679 0.403752 15.1389 0.132336C15.4849 0.0780523 15.831 0.023769 16.1838 0.00341281C16.6859 -0.0237288 16.8013 0.105194 16.8081 0.600529C16.8013 1.19764 16.8013 1.79476 16.8013 2.43938Z" fill="black"/>
<path d="M16.4146 32.0034C13.5104 32.0034 10.5995 32.0034 7.69534 32.0034C7.0168 32.0034 6.82002 31.7863 6.90823 31.1145C6.96251 30.6667 7.04394 30.2189 7.10501 29.771C7.13893 29.4928 7.28143 29.3164 7.54606 29.2282C8.25853 28.9975 8.69958 28.509 8.79457 27.7693C8.88957 27.0501 8.59101 26.4869 8.01425 26.0323C7.86497 25.9169 7.74283 25.6523 7.74962 25.4623C7.76998 24.9941 7.8514 24.5191 7.9464 24.0577C8.01425 23.7185 8.27888 23.6031 8.61137 23.6031C9.61561 23.6031 10.6266 23.6031 11.6309 23.6031C15.77 23.6031 19.9091 23.6099 24.0482 23.5963C24.6656 23.5963 24.9506 23.7795 24.9846 24.3834C25.0049 24.7295 25.0863 25.0755 25.1406 25.4216C25.1949 25.7473 25.0049 25.9441 24.7674 26.1205C23.9464 26.7515 23.8039 27.905 24.4892 28.665C24.7064 28.9025 25.0524 29.0179 25.3171 29.2282C25.4935 29.3639 25.7038 29.5335 25.7513 29.7303C25.8735 30.2121 25.9209 30.7074 25.9752 31.2028C26.0363 31.7659 25.8192 31.9967 25.2492 31.9967C22.2908 32.0034 19.3527 32.0034 16.4146 32.0034Z" fill="black"/>
</g>
<defs>
<clipPath id="clip0_92_76">
<rect width="32" height="32" fill="white"/>
</clipPath>
</defs>
</svg>
