<svg width="32" height="32" viewBox="0 0 32 32" fill="none" xmlns="http://www.w3.org/2000/svg">
<rect width="32" height="32" rx="16" fill="#8B8B8B"/>
<path fill-rule="evenodd" clip-rule="evenodd" d="M22.6394 11.4178C22.8117 11.861 22.932 12.3724 22.9648 13.1164C22.9977 13.8631 23.0004 14.101 23.0004 16.0019C23.0004 17.9029 22.9922 18.1408 22.9594 18.8875C22.9266 19.6315 22.8062 20.1402 22.6339 20.5861C22.2701 21.5269 21.526 22.2709 20.5849 22.6347C20.1418 22.807 19.6303 22.9273 18.8862 22.9601C18.1394 22.993 17.9015 23.0011 16.0003 23.0011C14.0991 23.0011 13.861 22.993 13.1143 22.9601C12.3701 22.9273 11.8614 22.807 11.4155 22.6347C10.9504 22.4597 10.5264 22.1834 10.1763 21.8278C9.82066 21.4777 9.54443 21.0565 9.36662 20.5861C9.19426 20.1429 9.07384 19.6315 9.04103 18.8875C9.00823 18.1408 9 17.9029 9 16.0019C9 14.101 9.00823 13.8631 9.04381 13.1136C9.07662 12.3697 9.19694 11.861 9.3693 11.4151C9.54443 10.9502 9.82066 10.5262 10.1763 10.1761C10.5264 9.81776 10.9477 9.54425 11.4183 9.36647C11.8614 9.19424 12.3729 9.07383 13.117 9.04103C13.8638 9.00823 14.1018 9 16.0029 9C17.9041 9 18.1421 9.00823 18.8917 9.0438C19.6357 9.07661 20.1446 9.19691 20.5904 9.36924C21.0554 9.54425 21.4794 9.82054 21.8296 10.1761C22.188 10.5262 22.4616 10.9474 22.6394 11.4178ZM21.4633 20.1317C21.559 19.8855 21.6739 19.5162 21.704 18.8325C21.7368 18.094 21.7451 17.8752 21.7451 16.007C21.7451 14.1389 21.7368 13.9174 21.704 13.179C21.6739 12.4978 21.559 12.1259 21.4633 11.8798C21.3511 11.5761 21.1733 11.3026 20.9407 11.0756C20.7165 10.8431 20.4401 10.6653 20.1365 10.5532C19.8903 10.4575 19.5211 10.3426 18.8372 10.3125C18.1013 10.2797 17.8797 10.2715 16.0086 10.2715C14.1403 10.2715 13.9187 10.2797 13.1801 10.3125C12.499 10.3426 12.1269 10.4575 11.8807 10.5532C11.577 10.6653 11.3035 10.8431 11.0765 11.0756C10.8412 11.2999 10.6634 11.5761 10.5512 11.8798C10.4555 12.1259 10.3406 12.4952 10.3106 13.179C10.2777 13.9147 10.2695 14.1389 10.2695 16.007C10.2695 17.8752 10.2777 18.0968 10.3106 18.8352C10.3406 19.5162 10.4555 19.8883 10.5512 20.1344C10.6634 20.438 10.8412 20.7115 11.0737 20.9385C11.298 21.171 11.5744 21.3488 11.8779 21.461C12.1241 21.5567 12.4934 21.6716 13.1773 21.7016C13.9132 21.7345 14.1375 21.7426 16.0059 21.7426C17.8743 21.7426 18.0958 21.7345 18.8344 21.7016C19.5156 21.6716 19.8876 21.5567 20.1338 21.461C20.7438 21.2257 21.228 20.7416 21.4633 20.1317ZM12.4058 16.001C12.4058 14.0152 14.017 12.4043 16.003 12.4043C17.989 12.4043 19.6002 14.0152 19.6002 16.001C19.6002 17.9868 17.989 19.5977 16.003 19.5977C14.017 19.5977 12.4058 17.9868 12.4058 16.001ZM13.6694 16.0011C13.6694 17.2894 14.7145 18.3342 16.0029 18.3342C17.2913 18.3342 18.3363 17.2894 18.3363 16.0011C18.3363 14.7128 17.2913 13.668 16.0029 13.668C14.7145 13.668 13.6694 14.7128 13.6694 16.0011ZM19.7421 13.1032C20.206 13.1032 20.582 12.7272 20.582 12.2635C20.582 11.7997 20.206 11.4238 19.7421 11.4238C19.2784 11.4238 18.9023 11.7997 18.9023 12.2635C18.9023 12.7272 19.2784 13.1032 19.7421 13.1032Z" fill="white"/>
</svg>
