<svg width="20" height="20" viewBox="0 0 20 20" fill="none" xmlns="http://www.w3.org/2000/svg">
<path d="M14.8437 13.3436L10 18.1874L5.15629 13.3436C4.19831 12.3857 3.54592 11.1651 3.28162 9.83634C3.01732 8.50757 3.15297 7.13027 3.67144 5.8786C4.1899 4.62693 5.06788 3.55711 6.19436 2.80443C7.32083 2.05174 8.6452 1.65 10 1.65C11.3548 1.65 12.6792 2.05174 13.8056 2.80443C14.9321 3.55711 15.8101 4.62693 16.3286 5.8786C16.847 7.13027 16.9827 8.50757 16.7184 9.83634C16.4541 11.1651 15.8017 12.3857 14.8437 13.3436Z" stroke="black" stroke-width="1.3"/>
<path d="M11.0168 8.66661C11.0168 9.2281 10.5617 9.68327 10.0002 9.68327C9.43867 9.68327 8.9835 9.2281 8.9835 8.66661C8.9835 8.10512 9.43867 7.64994 10.0002 7.64994C10.5617 7.64994 11.0168 8.10512 11.0168 8.66661Z" stroke="black" stroke-width="1.3"/>
</svg>
