<svg width="64" height="64" viewBox="0 0 64 64" fill="none" xmlns="http://www.w3.org/2000/svg">
<rect width="64" height="64" rx="32" fill="white"/>
<path d="M35.1108 36.2167C34.2856 37.0421 33.1663 37.5059 31.9992 37.5059C30.8322 37.5059 29.7129 37.0421 28.8876 36.2167M38.0499 21C39.0585 21.0001 40.0431 21.3083 40.8718 21.8835C41.7005 22.4587 42.3337 23.2733 42.6868 24.2184C43.0399 25.1635 43.0959 26.1939 42.8474 27.1717C42.5989 28.1495 42.0577 29.0281 41.2963 29.6898C41.6868 30.7539 41.9003 31.9049 41.9003 33.1043C41.8994 34.5512 41.5817 35.9803 40.9693 37.2912C40.357 38.602 39.4649 39.7627 38.3559 40.6917C37.2468 41.6206 35.9478 42.2952 34.5501 42.668C33.1524 43.0407 31.69 43.1026 30.2658 42.8493C28.8416 42.596 27.4902 42.0336 26.3067 41.2017C25.1231 40.3698 24.1362 39.2887 23.4153 38.0343C22.6944 36.7798 22.2571 35.3827 22.1341 33.941C22.0111 32.4994 22.2053 31.0483 22.7033 29.6898C22.1643 29.2213 21.733 28.6417 21.4391 27.9909C21.1451 27.34 20.9953 26.6332 21.0001 25.919C21.0049 25.2049 21.1641 24.5001 21.4667 23.8533C21.7694 23.2064 22.2083 22.6327 22.7535 22.1714C23.2987 21.7102 23.9371 21.3724 24.6251 21.1812C25.3131 20.9899 26.0342 20.9498 26.7391 21.0636C27.4441 21.1774 28.116 21.4423 28.7089 21.8403C29.3018 22.2383 29.8017 22.7598 30.1741 23.3691C31.3812 23.1439 32.6195 23.1439 33.8265 23.3691C34.2683 22.6451 34.8887 22.0469 35.6284 21.632C36.368 21.2171 37.2019 20.9995 38.0499 21Z" stroke="#141414" stroke-width="1.65" stroke-linecap="round" stroke-linejoin="round"/>
</svg>
