<svg width="32" height="32" viewBox="0 0 32 32" fill="none" xmlns="http://www.w3.org/2000/svg">
<rect width="32" height="32" rx="16" fill="#8B8B8B"/>
<path fill-rule="evenodd" clip-rule="evenodd" d="M22.2109 12.016H20.6837C20.2982 12.016 20.1203 12.2402 20.0165 12.4804C20.0165 12.4804 19.2307 14.5302 18.1335 15.8594C17.7776 16.2438 17.6145 16.3719 17.4218 16.3719C17.318 16.3719 17.1845 16.2438 17.1845 15.8915V12.6085C17.1845 12.1922 17.0659 12 16.7397 12H14.3377C14.1005 12 13.9522 12.1922 13.9522 12.3843C13.9522 12.7847 14.5008 12.8808 14.5601 14.0018V16.4359C14.5601 16.9644 14.4712 17.0605 14.2784 17.0605C13.7595 17.0605 12.4992 14.9947 11.743 12.6406C11.5947 12.1762 11.4465 12 11.061 12H9.51895C9.07414 12 9 12.2242 9 12.4644C9 12.8968 9.51895 15.0747 11.4168 17.9573C12.6771 19.927 14.4712 20.984 16.0873 20.984C17.0659 20.984 17.1845 20.7438 17.1845 20.3434V18.8541C17.1845 18.3737 17.2735 18.2936 17.5849 18.2936C17.8073 18.2936 18.2076 18.4217 19.1121 19.3665C20.15 20.4875 20.3279 21 20.9061 21H22.4333C22.8781 21 23.0857 20.7598 22.9671 20.2954C22.8337 19.831 22.3295 19.1584 21.6771 18.3577C21.3213 17.9093 20.7875 17.4128 20.6244 17.1726C20.402 16.8523 20.4613 16.7242 20.6244 16.4359C20.6096 16.4359 22.4778 13.5854 22.6706 12.6246C22.7743 12.2722 22.6706 12.016 22.2109 12.016Z" fill="white"/>
</svg>
